<svg version="1.0" xmlns="http://www.w3.org/2000/svg"
 width="228.000000pt" height="221.000000pt" viewBox="0 0 228.000000 221.000000">
    <g transform="translate(0.000000,221.000000) scale(0.100000,-0.100000)"
    fill="#000000" stroke="none">
    <path d="M260 1940 l0 -50 205 0 205 0 0 -50 0 -50 -205 0 -205 0 0 -155 0
    -155 673 0 672 0 -3 205 -3 205 161 0 160 0 0 -365 0 -365 -830 0 -830 0 0
    -367 0 -368 102 -102 c102 -103 103 -103 152 -103 49 0 50 1 152 102 l103 101
    3 106 3 106 158 3 157 3 0 -161 0 -160 -105 0 -105 0 0 -50 0 -50 360 0 359 0
    3 103 3 102 158 3 157 3 0 -106 0 -105 50 0 50 0 0 260 0 260 -675 0 -675 0 0
    -138 0 -138 -62 -60 c-102 -98 -87 -97 -173 -13 l-75 72 0 299 0 298 830 0
    830 0 0 465 0 465 -260 0 -260 0 0 -205 0 -205 -260 0 -260 0 0 55 0 55 155 0
    155 0 0 50 0 50 -155 0 -155 0 0 50 0 50 210 0 210 0 0 50 0 50 -260 0 -260 0
    0 -205 0 -205 -260 0 -260 0 0 55 0 55 205 0 205 0 0 150 0 150 -255 0 -255 0
    0 -50z m1240 -1460 l0 -160 -155 0 -155 0 0 160 0 160 155 0 155 0 0 -160z
    m420 105 l0 -56 -157 3 -158 3 -3 39 c-6 67 -9 66 163 66 l155 0 0 -55z"/>
    </g>
</svg>
